<svg xmlns="http://www.w3.org/2000/svg" version="1.1" xmlns:xlink="http://www.w3.org/1999/xlink"
  xmlns:svgjs="http://svgjs.dev/svgjs" width="2000" height="368" viewBox="0 0 2000 368">
  <g transform="matrix(1,0,0,1,-1.2121212121212466,0.12963616704942638)">
    <svg viewBox="0 0 396 73" data-background-color="#000000" preserveAspectRatio="xMidYMid meet"
      height="368" width="2000" xmlns="http://www.w3.org/2000/svg"
      xmlns:xlink="http://www.w3.org/1999/xlink">
      <g id="tight-bounds" transform="matrix(1,0,0,1,0.2400000000000091,-0.025715870094046522)">
        <svg viewBox="0 0 395.52 73.05143174018808" height="73.05143174018808" width="395.52">
          <g>
            <svg viewBox="0 0 473.29979567432514 87.41714127312886" height="73.05143174018808"
              width="395.52">
              <g transform="matrix(1,0,0,1,77.77979567432517,19.928840575214736)">
                <svg viewBox="0 0 395.52 47.55946012269939" height="47.55946012269939"
                  width="395.52">
                  <g id="textblocktransform">
                    <svg viewBox="0 0 395.52 47.55946012269939" height="47.55946012269939"
                      width="395.52" id="textblock">
                      <g>
                        <svg viewBox="0 0 395.52 47.55946012269939" height="47.55946012269939"
                          width="395.52">
                          <g transform="matrix(1,0,0,1,0,0)">
                            <svg width="395.52" viewBox="3.18 -33.05 344.42 41.65"
                              height="47.55946012269939" data-palette-color="#8162ff">
                              <g class="wordmark-text-0" data-fill-palette-color="primary"
                                id="text-0">
                                <path
                                  d="M17.53 0L17.53 0 7.83 0 7.83-5.25 16.78-5.25Q19.38-5.25 20.48-6.29 21.58-7.33 21.58-9.25L21.58-9.25 21.58-9.85Q21.58-11.83 20.46-12.85 19.35-13.88 16.65-13.88L16.65-13.88 7.75-13.88 7.75-18.78 16.5-18.78Q18.98-18.78 20.03-19.8 21.08-20.83 21.08-22.68L21.08-22.68 21.08-23Q21.08-24.85 20.05-25.83 19.03-26.8 16.5-26.8L16.5-26.8 7.7-26.8 7.7-31.95 17.18-31.95Q22.73-31.95 25.15-29.98 27.58-28 27.58-24.25L27.58-24.25 27.58-23.83Q27.58-20.98 26.16-19.4 24.75-17.82 21.75-17.53L21.75-17.53 21.75-17.28Q25.13-16.73 26.66-14.88 28.2-13.03 28.2-9.68L28.2-9.68 28.2-8.85Q28.2-4.55 25.66-2.27 23.13 0 17.53 0ZM9.55-31.95L9.55 0 3.18 0 3.18-31.95 9.55-31.95ZM53.3-15.15L53.3 0 46.97 0 47.2-6 47.02-6.55 47.02-14.23 47-15.33Q47-17.73 45.69-18.85 44.37-19.98 41.4-19.98L41.4-19.98Q38.87-19.98 36.66-19.31 34.45-18.65 32.57-17.78L32.57-17.78 33.12-22.88Q34.22-23.45 35.63-23.96 37.05-24.48 38.8-24.8 40.55-25.13 42.57-25.13L42.57-25.13Q45.57-25.13 47.65-24.41 49.72-23.7 50.96-22.38 52.2-21.05 52.75-19.21 53.3-17.38 53.3-15.15L53.3-15.15ZM38.95 0.58L38.95 0.58Q35.3 0.58 33.38-1.25 31.47-3.08 31.47-6.45L31.47-6.45 31.47-7.15Q31.47-10.73 33.67-12.44 35.87-14.15 40.65-14.8L40.65-14.8 47.6-15.75 47.97-11.63 41.57-10.7Q39.47-10.43 38.59-9.7 37.7-8.97 37.7-7.58L37.7-7.58 37.7-7.33Q37.7-5.95 38.56-5.19 39.42-4.42 41.27-4.42L41.27-4.42Q42.92-4.42 44.1-4.95 45.27-5.48 46.03-6.34 46.8-7.2 47.12-8.28L47.12-8.28 48.02-5.1 46.92-5.1Q46.52-3.53 45.64-2.24 44.75-0.95 43.15-0.19 41.55 0.58 38.95 0.58ZM64.77-14.25L64.77-14.25 63.15-18.53 64.7-18.53Q65.37-21.5 67.15-23.2 68.92-24.9 72.07-24.9L72.07-24.9Q72.72-24.9 73.25-24.81 73.77-24.73 74.2-24.6L74.2-24.6 74.55-18.2Q74-18.38 73.27-18.46 72.55-18.55 71.75-18.55L71.75-18.55Q69.2-18.55 67.41-17.43 65.62-16.3 64.77-14.25ZM64.95-16.78L64.95 0 58.55 0 58.55-24.53 64.65-24.53 64.37-17 64.95-16.78ZM91.92 0.58L91.92 0.58Q89.72 0.58 88.18-0.14 86.64-0.85 85.71-2.15 84.77-3.45 84.37-5.2L84.37-5.2 82.54-5.2 84.19-10.1Q84.27-8.35 84.94-7.15 85.62-5.95 86.82-5.35 88.02-4.75 89.59-4.75L89.59-4.75Q92.02-4.75 93.27-6.16 94.52-7.58 94.52-10.4L94.52-10.4 94.52-14.38Q94.52-17.13 93.27-18.53 92.02-19.93 89.59-19.93L89.59-19.93Q88.17-19.93 87.04-19.39 85.92-18.85 85.17-17.95 84.42-17.05 84.09-15.88L84.09-15.88 82.64-19.33 84.44-19.33Q84.84-20.93 85.72-22.24 86.59-23.55 88.16-24.31 89.72-25.08 92.14-25.08L92.14-25.08Q96.47-25.08 98.72-22.29 100.97-19.5 100.97-14.05L100.97-14.05 100.97-10.65Q100.97-5.15 98.69-2.29 96.42 0.58 91.92 0.58ZM84.09-6L84.32 0 77.92 0 77.92-33.05 84.29-33.05 84.29-25.5 84.17-18.03 84.19-17.25 84.19-7.53 84.09-6ZM117.22 0.6L117.22 0.6Q110.92 0.6 107.84-2.3 104.77-5.2 104.77-10.7L104.77-10.7 104.77-13.9Q104.77-19.35 107.64-22.28 110.52-25.2 115.99-25.2L115.99-25.2Q119.69-25.2 122.17-23.9 124.64-22.6 125.88-20.21 127.12-17.82 127.12-14.5L127.12-14.5 127.12-13.63Q127.12-12.73 127.03-11.79 126.94-10.85 126.79-10.03L126.79-10.03 120.99-10.03Q121.07-11.4 121.08-12.64 121.09-13.88 121.09-14.88L121.09-14.88Q121.09-16.6 120.54-17.81 119.99-19.03 118.87-19.65 117.74-20.28 115.99-20.28L115.99-20.28Q113.42-20.28 112.19-18.85 110.97-17.43 110.97-14.8L110.97-14.8 110.97-12.53 110.99-11.8 110.99-9.88Q110.99-8.72 111.35-7.75 111.72-6.78 112.57-6.06 113.42-5.35 114.83-4.95 116.24-4.55 118.37-4.55L118.37-4.55Q120.67-4.55 122.75-5.06 124.84-5.58 126.72-6.45L126.72-6.45 126.17-1.4Q124.49-0.48 122.23 0.06 119.97 0.6 117.22 0.6ZM125.49-14.28L125.49-10.03 108.17-10.03 108.17-14.28 125.49-14.28ZM137.86-14.25L137.86-14.25 136.24-18.53 137.79-18.53Q138.46-21.5 140.24-23.2 142.01-24.9 145.16-24.9L145.16-24.9Q145.81-24.9 146.34-24.81 146.86-24.73 147.29-24.6L147.29-24.6 147.64-18.2Q147.09-18.38 146.36-18.46 145.64-18.55 144.84-18.55L144.84-18.55Q142.29-18.55 140.5-17.43 138.71-16.3 137.86-14.25ZM138.04-16.78L138.04 0 131.64 0 131.64-24.53 137.74-24.53 137.46-17 138.04-16.78ZM159.39 0.6L159.39 0.6Q156.44 0.6 154.15 0.04 151.86-0.53 150.26-1.23L150.26-1.23 149.69-6.78Q151.59-5.9 153.87-5.25 156.16-4.6 158.91-4.6L158.91-4.6Q161.31-4.6 162.39-5.21 163.46-5.83 163.46-7.05L163.46-7.05 163.46-7.2Q163.46-8.03 162.97-8.55 162.49-9.08 161.26-9.51 160.04-9.95 157.81-10.45L157.81-10.45Q154.74-11.18 152.95-12.14 151.16-13.1 150.39-14.51 149.61-15.93 149.61-17.9L149.61-17.9 149.61-18.13Q149.61-21.6 152.09-23.36 154.56-25.13 159.41-25.13L159.41-25.13Q162.29-25.13 164.5-24.56 166.71-24 168.19-23.23L168.19-23.23 168.76-18.13Q167.01-18.95 164.84-19.51 162.66-20.08 160.16-20.08L160.16-20.08Q158.54-20.08 157.6-19.81 156.66-19.55 156.26-19.07 155.86-18.6 155.86-17.93L155.86-17.93 155.86-17.8Q155.86-17.05 156.3-16.5 156.74-15.95 157.91-15.51 159.09-15.08 161.21-14.58L161.21-14.58Q164.31-13.93 166.19-13.05 168.06-12.18 168.91-10.81 169.76-9.45 169.76-7.25L169.76-7.25 169.76-6.95Q169.76-3.15 167.19-1.28 164.61 0.6 159.39 0.6ZM196.23-15.65L196.23 0 189.83 0 189.83-14.73Q189.83-16.28 189.42-17.4 189.01-18.53 188.06-19.15 187.11-19.78 185.46-19.78L185.46-19.78Q184.01-19.78 182.93-19.25 181.86-18.73 181.17-17.84 180.48-16.95 180.16-15.83L180.16-15.83 178.86-19.33 180.38-19.33Q180.81-20.95 181.73-22.25 182.66-23.55 184.26-24.31 185.86-25.08 188.23-25.08L188.23-25.08Q191.06-25.08 192.81-24.01 194.56-22.95 195.4-20.85 196.23-18.75 196.23-15.65L196.23-15.65ZM180.26-17.4L180.26 0 173.86 0 173.86-33.05 180.23-33.05 180.23-25.5 180.11-17.88 180.26-17.4ZM212.23 0.68L212.23 0.68Q206.53 0.68 203.59-2.25 200.66-5.18 200.66-10.58L200.66-10.58 200.66-13.9Q200.66-19.33 203.59-22.26 206.53-25.2 212.23-25.2L212.23-25.2Q217.91-25.2 220.83-22.26 223.76-19.33 223.76-13.9L223.76-13.9 223.76-10.58Q223.76-5.18 220.84-2.25 217.93 0.68 212.23 0.68ZM212.23-4.45L212.23-4.45Q214.73-4.45 216.04-5.95 217.36-7.45 217.36-10.25L217.36-10.25 217.36-14.23Q217.36-17.07 216.04-18.59 214.73-20.1 212.23-20.1L212.23-20.1Q209.71-20.1 208.39-18.59 207.08-17.07 207.08-14.23L207.08-14.23 207.08-10.25Q207.08-7.45 208.39-5.95 209.71-4.45 212.23-4.45ZM242.43 0.58L242.43 0.58Q240.23 0.58 238.7-0.14 237.18-0.85 236.24-2.15 235.3-3.45 234.9-5.2L234.9-5.2 233.08-5.2 234.7-10.1Q234.75-8.35 235.42-7.15 236.08-5.95 237.27-5.35 238.45-4.75 240.05-4.75L240.05-4.75Q242.48-4.75 243.75-6.16 245.03-7.58 245.03-10.35L245.03-10.35 245.03-14.38Q245.03-17.13 243.78-18.53 242.53-19.93 240.08-19.93L240.08-19.93Q238.68-19.93 237.55-19.39 236.43-18.85 235.68-17.95 234.93-17.05 234.6-15.88L234.6-15.88 233.1-19.33 234.88-19.33Q235.28-20.93 236.17-22.24 237.05-23.55 238.64-24.31 240.23-25.08 242.65-25.08L242.65-25.08Q246.98-25.08 249.23-22.29 251.48-19.5 251.48-14.05L251.48-14.05 251.48-10.65Q251.48-5.15 249.22-2.29 246.95 0.58 242.43 0.58ZM234.8 0.53L234.8 8.6 228.43 8.6 228.43-24.53 234.83-24.53 234.58-18.3 234.7-17.18 234.7-7.35 234.63-6.2 234.8 0.53Z"
                                  fill="#8162ff" data-fill-palette-color="primary"></path>
                                <path
                                  d="M265.13-31.95L271.73-31.95 271.73 0 265.13 0 265.13-31.95ZM284.25-31.95L290.83-31.95 290.83 0 284.25 0 284.25-31.95ZM286.75-13.65L268.9-13.65 268.9-19.13 286.75-19.13 286.75-13.65ZM296.58-8.85L296.58-24.53 302.98-24.53 302.98-9.78Q302.98-8.25 303.39-7.11 303.8-5.98 304.76-5.36 305.73-4.75 307.35-4.75L307.35-4.75Q308.83-4.75 309.9-5.28 310.98-5.8 311.68-6.69 312.38-7.58 312.7-8.68L312.7-8.68 313.7-5.2 312.5-5.2Q312.1-3.6 311.16-2.29 310.23-0.98 308.61-0.2 307 0.58 304.58 0.58L304.58 0.58Q301.78 0.58 300.01-0.5 298.25-1.58 297.41-3.68 296.58-5.78 296.58-8.85L296.58-8.85ZM312.55-6.48L312.55-24.53 318.95-24.53 318.95 0 312.58 0 312.8-5.95 312.55-6.48ZM338.55 0.58L338.55 0.58Q336.35 0.58 334.81-0.14 333.27-0.85 332.34-2.15 331.4-3.45 331-5.2L331-5.2 329.17-5.2 330.82-10.1Q330.9-8.35 331.57-7.15 332.25-5.95 333.45-5.35 334.65-4.75 336.22-4.75L336.22-4.75Q338.65-4.75 339.9-6.16 341.15-7.58 341.15-10.4L341.15-10.4 341.15-14.38Q341.15-17.13 339.9-18.53 338.65-19.93 336.22-19.93L336.22-19.93Q334.8-19.93 333.67-19.39 332.55-18.85 331.8-17.95 331.05-17.05 330.72-15.88L330.72-15.88 329.27-19.33 331.07-19.33Q331.47-20.93 332.35-22.24 333.22-23.55 334.79-24.31 336.35-25.08 338.77-25.08L338.77-25.08Q343.1-25.08 345.35-22.29 347.6-19.5 347.6-14.05L347.6-14.05 347.6-10.65Q347.6-5.15 345.32-2.29 343.05 0.58 338.55 0.58ZM330.72-6L330.95 0 324.55 0 324.55-33.05 330.92-33.05 330.92-25.5 330.8-18.03 330.82-17.25 330.82-7.53 330.72-6Z"
                                  fill="#ffffff" data-fill-palette-color="secondary"></path>
                              </g>
                            </svg>
                          </g>
                        </svg>
                      </g>
                    </svg>
                  </g>
                </svg>
              </g>
              <g>
                <svg viewBox="0 0 66.55214856639878 87.41714127312886" height="87.41714127312886"
                  width="66.55214856639878">
                  <g>
                    <svg xmlns="http://www.w3.org/2000/svg"
                      xmlns:xlink="http://www.w3.org/1999/xlink" version="1.1" x="0" y="0"
                      viewBox="15.777999999999993 5.1370000000000005 68.887 90.484"
                      enable-background="new 0 0 100 100" xml:space="preserve"
                      height="87.41714127312886" width="66.55214856639878" class="icon-icon-0"
                      data-fill-palette-color="accent" id="icon-0"><g fill="#8162ff" data-fill-palette-color="accent"><g fill="#8162ff" data-fill-palette-color="accent"><path fill="#8162ff" d="M34.297 54.455L34.297 54.455c-0.983 0-1.907-0.383-2.603-1.078-0.696-0.695-1.08-1.621-1.08-2.605 0-0.984 0.384-1.91 1.081-2.606 1.39-1.39 3.814-1.392 5.21 0 1.436 1.437 1.435 3.772-0.002 5.209C36.206 54.072 35.28 54.455 34.297 54.455zM34.3 50.087c-0.106 0-0.31 0.025-0.484 0.2-0.176 0.176-0.201 0.378-0.201 0.484s0.025 0.309 0.201 0.484c0.35 0.35 0.618 0.344 0.967-0.002 0.267-0.268 0.268-0.701 0.002-0.966C34.609 50.113 34.405 50.087 34.3 50.087z" data-fill-palette-color="accent"></path></g><g fill="#8162ff" data-fill-palette-color="accent"><path fill="#8162ff" d="M66.771 86.928L66.771 86.928c-0.984 0-1.908-0.383-2.604-1.078-0.697-0.695-1.082-1.621-1.08-2.605 0-0.984 0.383-1.91 1.082-2.607 1.387-1.387 3.818-1.389 5.209 0.002 1.436 1.436 1.436 3.771-0.002 5.209C68.681 86.545 67.755 86.928 66.771 86.928zM66.772 82.559c-0.105 0-0.309 0.027-0.484 0.201-0.176 0.176-0.201 0.379-0.201 0.484-0.002 0.105 0.025 0.309 0.199 0.482 0.352 0.352 0.617 0.352 0.969 0 0.268-0.268 0.268-0.701 0.002-0.967C67.081 82.586 66.878 82.559 66.772 82.559z" data-fill-palette-color="accent"></path></g><g fill="#8162ff" data-fill-palette-color="accent"><path fill="#8162ff" d="M57.45 75.422c-0.385 0-0.768-0.146-1.061-0.439l-13.83-13.83c-0.586-0.586-0.586-1.535 0-2.121s1.535-0.586 2.121 0l13.83 13.83c0.586 0.586 0.586 1.535 0 2.121C58.218 75.275 57.835 75.422 57.45 75.422z" data-fill-palette-color="accent"></path></g><path fill="#8162ff" d="M45.186 46.533l6.108-6.108 4.012 4.01 29.359-29.359-9.941-9.939L39.221 40.64c-0.851-0.678-2.663-1.869-4.932-1.869-1.872 0-3.603 0.782-5.146 2.325l-4.52 4.52c-1.759 1.758-3.984 6.039-0.468 10.086l-8.377 8.378 5.93 5.93 8.353-8.352L61.7 93.295c0.094 0.096 2.361 2.326 5.459 2.326 1.873 0 3.604-0.783 5.145-2.326l4.521-4.518c1.834-1.834 4.195-6.414 0-10.607L45.186 46.533zM55.306 40.192l-1.911-1.911 9.159-9.16h3.822L55.306 40.192zM69.376 26.122h-3.822l2.848-2.848h3.822L69.376 26.122zM80.423 15.075l-5.199 5.199h-3.822l7.11-7.11L80.423 15.075zM76.39 11.043L50.753 36.68c-0.038 0.038-0.052 0.087-0.085 0.128l-7.604 7.604-1.687-1.687L74.724 9.377 76.39 11.043zM21.708 65.768l-1.688-1.688 6.23-6.23 1.688 1.688L21.708 65.768zM74.704 86.656l-4.521 4.518c-0.973 0.975-1.961 1.447-3.023 1.447-1.836 0-3.328-1.439-3.338-1.447L26.745 54.102c-2.994-2.996-0.521-5.833 0-6.365l4.52-4.52c0.974-0.973 1.963-1.446 3.024-1.446 1.838 0 3.33 1.438 3.339 1.446l37.076 37.074C77.698 83.285 75.224 86.123 74.704 86.656z" data-fill-palette-color="accent"></path></g></svg>
                  </g>
                </svg>
              </g>
            </svg>
          </g>
          <defs></defs>
        </svg>
        <rect width="395.52" height="73.05143174018808" fill="none" stroke="none"
          visibility="hidden"></rect>
      </g>
    </svg>
  </g>
</svg>